# xmcd
#
# Track frame offsets:
#	150
#	12932
#	26255
#	38382
#	54195
#	67145
#	81545
#	93235
#	106005
#	123000
#	138460
#	149522
#	159530
#	176932
#	190815
#	222895
#	242777
#	254412
#	271467
#	283965
#	297607
#	313862
#	329090
#
# Disc length: 4590 seconds
#
# Revision: 0
# Processed by: cddbd v1.4PL0 Copyright (c) Steve Scherf et al.
# Submitted via: audiograbber 1.80.04
#
DISCID=6111ec17
DTITLE=Jelly Roll Morton and James P. Johnson - Jelly and James
DYEAR=1900
DGENRE=
TTITLE0=Pep
TTITLE1=Buddy Bolden's Blues
TTITLE2=The Finger Breaker
TTITLE3=The Pearls
TTITLE4=Shreveport Stomp
TTITLE5=King Porter Stomp
TTITLE6=Grandpa's Spells
TTITLE7=The Perfect Rag
TTITLE8=The Crave
TTITLE9=Black Bottom Stomp
TTITLE10=Mr. Jelly-Lord
TTITLE11=Charleston
TTITLE12=If I Could Be with You One Hour Tonight
TTITLE13=Caprice Rag
TTITLE14=Selections from Runnin' Wild
TTITLE15=Snowy Morning Blues
TTITLE16=Steeplechase Rag
TTITLE17=Eccentricity
TTITLE18=Carolina Balmoral
TTITLE19=Just Before Daybreak
TTITLE20=Jingles
TTITLE21=Carolina Shout
TTITLE22=You've Got to Be Modernistic
EXTD=
EXTT0=
EXTT1=
EXTT2=
EXTT3=
EXTT4=
EXTT5=
EXTT6=
EXTT7=
EXTT8=
EXTT9=
EXTT10=
EXTT11=
EXTT12=
EXTT13=
EXTT14=
EXTT15=
EXTT16=
EXTT17=
EXTT18=
EXTT19=
EXTT20=
EXTT21=
EXTT22=
PLAYORDER=
